<mxfile host="app.diagrams.net" modified="2023-07-14T21:26:16.168Z" agent="Mozilla/5.0 (X11; Linux x86_64) AppleWebKit/537.36 (KHTML, like Gecko) Chrome/114.0.5735.196 Safari/537.36 OPR/100.0.4815.13" version="21.6.2" etag="Sfp7J53stc3Qgt7uwmvq" type="github">
  <diagram name="PÃ¡gina-1" id="SPLiDlX3CJWz3hZHFtTe">
    <mxGraphModel>
      <root>
        <mxCell id="0" />
        <mxCell id="1" parent="0" />
      </root>
    </mxGraphModel>
  </diagram>
</mxfile>
